<svg xmlns="http://www.w3.org/2000/svg" width="1200" height="900" viewBox="0 0 1200 900">
  <defs>
    <linearGradient id="bg" x1="0" y1="0" x2="1" y2="1"><stop stop-color="#704622"/><stop offset="1" stop-color="#e9b86c"/></linearGradient>
    <radialGradient id="glow" cx="35%" cy="28%" r="60%"><stop stop-color="#fff3d6" stop-opacity=".75"/><stop offset="1" stop-color="#fff3d6" stop-opacity="0"/></radialGradient>
    <filter id="shadow" x="-20%" y="-20%" width="140%" height="140%"><feDropShadow dx="0" dy="24" stdDeviation="28" flood-color="#2b160d" flood-opacity=".28"/></filter>
  </defs>
  <rect width="1200" height="900" fill="url(#bg)"/>
  <rect width="1200" height="900" fill="url(#glow)"/>
  <g opacity=".18" fill="#fff"><circle cx="145" cy="160" r="86"/><circle cx="1040" cy="160" r="120"/><circle cx="1030" cy="790" r="170"/></g>
  <g filter="url(#shadow)" transform="translate(600 480)">
    <ellipse cx="0" cy="245" rx="260" ry="54" fill="#2a160e" opacity=".22"/>
    <path d="M-175 20h350l-38 272c-9 66-52 100-137 100s-128-34-137-100z" fill="#f4dfc5"/>
    <path d="M-158 56h316l-30 218c-7 50-44 77-128 77s-121-27-128-77z" fill="#c77a35" opacity=".92"/>
    <path d="M175 84c84 2 138 42 138 104 0 72-57 116-145 118l10-70c45-2 72-19 72-49 0-29-27-45-65-47z" fill="#f4dfc5"/>
    <ellipse cx="0" cy="24" rx="196" ry="70" fill="#fff4de"/>
    <ellipse cx="0" cy="26" rx="146" ry="38" fill="#6f3a21" opacity=".9"/>
    <path d="M-78 2c28 24 70 26 124 5 18-7 36-4 51 11-56 40-125 45-202 15 8-18 16-28 27-31z" fill="#fff7e7" opacity=".88"/>
  </g>
  <g font-family="Inter, Arial, sans-serif" text-anchor="middle">
    <text x="600" y="116" fill="#fff8ef" font-size="58" font-weight="800">Croissant Butter</text>
    <text x="600" y="170" fill="#ffe4b8" font-size="28" font-weight="700">fresh bakery pairing</text>
  </g>
</svg>